<svg width="32" height="24" viewBox="0 0 32 24" fill="none" xmlns="http://www.w3.org/2000/svg">
<path d="M25.994 9.072V11.328H30.498V15.08H25.994V19.587H22.24V5.32H32V9.073H25.994V9.072ZM15.482 19.587H19.234V5.32H15.48V19.587H15.482ZM6.246 14.237H8.918V15.525C8.393 15.832 7.788 16.021 7.136 16.021C5.168 16.021 3.568 14.421 3.568 12.454C3.568 10.487 5.168 8.889 7.136 8.889C8.128 8.889 9.048 9.309 9.723 10.029L12.483 7.819V7.749C11.126 6.209 9.197 5.319 7.133 5.319H7.136C3.2 5.317 0 8.517 0 12.452C0 16.387 3.2 19.588 7.136 19.588C9.264 19.588 11.176 18.643 12.486 17.155V11.56H6.246V14.237Z" fill="black"/>
</svg>
